<?xml version="1.0" encoding="utf-8"?>
<!-- Generator: Adobe Illustrator 24.1.2, SVG Export Plug-In . SVG Version: 6.00 Build 0)  -->
<svg version="1.1" id="f89af28b-111d-4872-814f-cbbc169855b4"
	 xmlns="http://www.w3.org/2000/svg" xmlns:xlink="http://www.w3.org/1999/xlink" x="0px" y="0px" viewBox="0 0 867.1 500.1"
	 style="enable-background:new 0 0 867.1 500.1;" xml:space="preserve">
<style type="text/css">
	.st0{fill:#3A2C60;}
	.st1{fill:#F9A825;}
	.st2{fill:#6DC9F7;}
	.st3{clip-path:url(#SVGID_2_);}
	.st4{fill:url(#SVGID_3_);}
	.st5{fill:#FFFFFF;}
	.st6{opacity:0.2;fill:#FFFFFF;enable-background:new    ;}
	.st7{fill:#FA759E;}
</style>
<path class="st0" d="M15,192h285.2c7.7,0,14,6.3,14,14l0,0v22.2l0,0H1l0,0V206C1,198.3,7.2,192,15,192z"/>
<path class="st1" d="M294.7,189.4c-1.4,0-2.8,0.2-4.1,0.7c-1-4.2-5.2-6.7-9.4-5.7c-3.5,0.9-5.9,4-5.9,7.5c0,0,0,0.1,0,0.1
	c-1,0.1-1.9,0.3-2.9,0.6c-0.5-2.1-1.9-3.9-3.8-4.9c2.5-1.4,4.5-3.5,5.6-6.1c6.3-0.1,11.4-4.7,11.4-10.3c0-5.7-5.2-10.4-11.6-10.4
	c-1.4,0-2.8,0.2-4.1,0.7c-1-4.2-5.1-6.7-9.3-5.8c-4.2,1-6.7,5.1-5.8,9.3c0.1,0.2,0.1,0.4,0.2,0.7c-0.3,0.2-0.6,0.5-0.9,0.7
	c-1.5-1.3-3.4-1.9-5.3-1.8c-2.3-6.7-9.7-10.3-16.4-7.9c-5.1,1.8-8.6,6.5-8.7,11.9c-1,0.1-2.1,0.3-3.1,0.6c-0.1-0.4-0.3-0.9-0.4-1.3
	c2.1-1.8,3.3-4.4,3.3-7.2c0-5.7-5.2-10.4-11.6-10.4c-1.4,0-2.8,0.2-4.1,0.7c-1-4.2-5.1-6.7-9.3-5.8s-6.7,5.1-5.8,9.3
	c0.1,0.2,0.1,0.4,0.2,0.7c-3.3,2.3-5.3,6-5.5,10c-0.1,0.1-0.2,0.2-0.3,0.3c0.2-0.7,0.3-1.5,0.3-2.3c0-5.7-5.2-10.4-11.6-10.4
	c-1.4,0-2.8,0.2-4.1,0.7c-1-4.2-5.1-6.7-9.3-5.8s-6.7,5.1-5.8,9.3c0.1,0.2,0.1,0.4,0.2,0.7c-5.9,4.1-7.3,12.1-3.3,18
	c0.9,1.3,2,2.4,3.3,3.3c-0.5,1.5-0.5,3.1,0,4.6c-1.3,0.9-2.4,2-3.3,3.3c-1.1-4.1-5.4-6.5-9.5-5.4c-3.1,0.8-5.3,3.5-5.6,6.7
	c-1-0.6-2.2-1.1-3.3-1.3c2.1-1.4,3.7-3.3,4.8-5.6c6.3-0.1,11.4-4.7,11.4-10.3c0-5.7-5.2-10.4-11.6-10.4c-1.4,0-2.8,0.2-4.1,0.7
	c-1-4.2-5.1-6.7-9.3-5.8s-6.7,5.1-5.8,9.3c0.1,0.2,0.1,0.4,0.2,0.7c-0.2,0.1-0.3,0.3-0.5,0.4c-0.4,0-0.8-0.1-1.2-0.1
	c-1.4,0-2.8,0.2-4.1,0.7c0-0.2-0.1-0.4-0.2-0.6c0.9-4.1-1.7-8.2-5.8-9.1c-0.7-0.1-1.4-0.2-2.1-0.2c-2.4-6.7-9.8-10.2-16.5-7.8
	c-6.7,2.4-10.2,9.8-7.8,16.5c0.8,2.2,2.2,4.2,4,5.7c-0.9,0.1-1.8,0.3-2.6,0.6c-1-4.1-5.2-6.7-9.3-5.7c-1.1,0.3-2.1,0.8-3,1.5
	c-2.3-2.8-5.8-4.4-9.4-4.3c-1.4,0-2.8,0.2-4.1,0.7c-1-4.2-5.1-6.7-9.3-5.8c-4.2,1-6.7,5.1-5.8,9.3c0.1,0.2,0.1,0.4,0.2,0.7
	c-3.5,2.4-5.6,6.4-5.6,10.6c0,0,0,0.1,0,0.1c-1.8-0.3-3.7-0.1-5.4,0.6c-1-4.2-5.1-6.7-9.3-5.8c-4.2,1-6.7,5.1-5.8,9.3
	c0.1,0.2,0.1,0.4,0.2,0.7c-5.9,4-7.4,12-3.4,17.9c3,4.4,8.4,6.5,13.6,5.3c1.2,7,7.9,11.7,14.9,10.5c4.1-0.7,7.7-3.4,9.5-7.2
	c3,6.4,10.7,9.2,17.2,6.2c2.8-1.3,5.1-3.7,6.3-6.5c1.5,0,3-0.3,4.5-0.9c2.3,6.7,9.7,10.3,16.4,7.9c3.4-1.2,6.2-3.8,7.6-7.1
	c1.9,0,3.7-0.5,5.4-1.3c3.5,6.2,11.4,8.4,17.6,4.9c2.4-1.4,4.4-3.5,5.5-6.1c0.7,0,1.4-0.1,2.1-0.2c2.7,6.6,10.3,9.7,16.9,7
	c3.1-1.3,5.6-3.7,6.9-6.8c1,0,2-0.2,3-0.4c5.3,1.5,11-0.7,14-5.4c-1.8,6.9,2.4,14,9.3,15.8c6.2,1.6,12.6-1.5,15.1-7.4
	c1.9,0,3.7-0.5,5.4-1.3c3.5,6.2,11.4,8.4,17.6,4.9c2.4-1.4,4.4-3.5,5.5-6.1c1.9,0,3.7-0.5,5.4-1.3c3.5,6.2,11.3,8.4,17.4,4.9
	c0.6-0.3,1.2-0.7,1.7-1.2c1.3,7,8,11.6,15,10.4c3.2-0.6,6.1-2.4,8.1-5c5.6,4.3,13.7,3.3,18-2.4c0.6-0.8,1.2-1.8,1.6-2.7
	c6.3-0.1,11.4-4.7,11.4-10.3C306.4,194.1,301.2,189.4,294.7,189.4z M63.4,184.1c0,0.1,0,0.1,0,0.2c-0.1,0-0.2,0-0.3,0
	c-0.4,0-0.8,0-1.2,0.1c0,0,0.1-0.1,0.1-0.1C62.5,184.2,62.9,184.2,63.4,184.1z M171.5,179.8c0-0.2-0.1-0.3-0.1-0.4
	c2-1.4,3.5-3.3,4.5-5.5c3.4,0,6.7-1.5,9-4.1c-0.1,0.5-0.2,1-0.2,1.5c0,0.8,0.1,1.6,0.4,2.3c-2.2,1.5-3.9,3.8-4.8,6.3
	C177.5,178.9,174.4,178.8,171.5,179.8L171.5,179.8z M249.1,180.8c0-0.2,0-0.3,0-0.5c0.3,0,0.7,0,1-0.1c0.5,1.7,1.3,3.2,2.5,4.6
	c-0.2,0.1-0.5,0.1-0.7,0.2C251.4,183.3,250.4,181.8,249.1,180.8z"/>
<path class="st0" d="M27.9,206C13,206,1,218.1,1,233c0,0.5,0,1,0,1.4l17.5,240.2c0.8,14.3,12.6,25.5,26.9,25.5h225.3
	c14.3,0,26.1-11.2,26.9-25.5l17.5-240.2c0.8-14.9-10.6-27.5-25.5-28.3c-0.5,0-1,0-1.4,0L27.9,206z"/>
<rect x="39.8" y="205" class="st2" width="15.5" height="295.1"/>
<rect x="83.8" y="205" class="st2" width="15.5" height="295.1"/>
<rect x="127.8" y="205" class="st2" width="15.5" height="295.1"/>
<rect x="171.8" y="205" class="st2" width="15.5" height="295.1"/>
<rect x="215.8" y="205" class="st2" width="15.5" height="295.1"/>
<rect x="259.8" y="205" class="st2" width="15.5" height="295.1"/>
<path id="a971f948-84ae-4583-a462-a09341ab7c50" class="st0" d="M528.7,84l-6.8-16.5l-90.3,37.1c-4.2,1.7-6.9,5.8-6.9,10.3v97.5
	h17.8v-93L528.7,84z"/>
<g>
	<defs>
		<path id="SVGID_1_" d="M528.7,84l-6.8-16.5l-90.3,37.1c-4.2,1.7-6.9,5.8-6.9,10.3v97.5h17.8v-93L528.7,84z"/>
	</defs>
	<clipPath id="SVGID_2_">
		<use xlink:href="#SVGID_1_"  style="overflow:visible;"/>
	</clipPath>
	<g class="st3">
		<rect x="497.7" y="49.6" class="st2" width="19.4" height="61.6"/>
		<rect x="466.9" y="62.6" class="st2" width="19.4" height="61.6"/>
		<polygon class="st2" points="456.3,115.2 442.6,119.3 436.9,53.6 456.3,53.6 		"/>
		<rect x="406.1" y="122.5" class="st2" width="61.6" height="19.4"/>
		<rect x="406.1" y="149.2" class="st2" width="61.6" height="19.4"/>
		<rect x="406.1" y="176" class="st2" width="61.6" height="19.4"/>
	</g>
</g>
<polygon class="st0" points="497.7,500.1 378.6,500.1 349.4,208.4 523.6,208.4 "/>
<rect x="337.3" y="203.5" class="st0" width="199.3" height="19.4"/>
<circle class="st2" cx="739.3" cy="67.2" r="67"/>
<linearGradient id="SVGID_3_" gradientUnits="userSpaceOnUse" x1="916.5879" y1="398.0817" x2="916.5879" y2="332.2017" gradientTransform="matrix(1 0 0 1 -166.4459 -297.9717)">
	<stop  offset="0" style="stop-color:#000000;stop-opacity:0.12"/>
	<stop  offset="0.55" style="stop-color:#000000;stop-opacity:9.000000e-02"/>
	<stop  offset="1" style="stop-color:#000000;stop-opacity:2.000000e-02"/>
</linearGradient>
<polygon class="st4" points="783.7,67.2 716.6,100.1 716.6,67.2 716.6,34.2 "/>
<polygon class="st5" points="779.6,67.2 720.6,96.2 720.6,67.2 720.6,38.2 "/>
<path class="st6" d="M677.8,74.9c0-37,30-67,67.1-66.9c19.9,0,38.9,8.9,51.6,24.3C777.2,0.6,736-9.5,704.4,9.8s-41.7,60.4-22.4,92.1
	c1.7,2.8,3.6,5.5,5.7,8C681.2,99.3,677.8,87.2,677.8,74.9z"/>
<path class="st0" d="M727.5,414.8c-1.6,0-2.9,1.3-2.9,2.9v79.4c0,1.6,1.3,2.9,2.9,2.9h136.6c1.6,0,2.9-1.3,2.9-2.9v-79.4
	c0-1.6-1.3-2.9-2.9-2.9H727.5z"/>
<path class="st7" d="M742.8,421.8c-3,0-5.5,2.5-5.5,5.5v60.3c0,3,2.5,5.5,5.5,5.5h106.1c3,0,5.5-2.5,5.5-5.5v-60.3
	c0-3-2.5-5.5-5.5-5.5L742.8,421.8z"/>
<rect x="657.9" y="440.9" class="st0" width="71.2" height="16.5"/>
<path class="st0" d="M534.1,414.8c-1.6,0-2.9,1.3-2.9,2.9v79.4c0,1.6,1.3,2.9,2.9,2.9h136.6c1.6,0,2.9-1.3,2.9-2.9v-79.4
	c0-1.6-1.3-2.9-2.9-2.9H534.1z"/>
<path class="st2" d="M549.4,421.8c-3,0-5.5,2.5-5.5,5.5v60.3c0,3,2.5,5.5,5.5,5.5h106.1c3,0,5.5-2.5,5.5-5.5v-60.3
	c0-3-2.5-5.5-5.5-5.5L549.4,421.8z"/>
</svg>
