<?xml version="1.0" encoding="utf-8"?>
<!-- Generator: Adobe Illustrator 24.1.2, SVG Export Plug-In . SVG Version: 6.00 Build 0)  -->
<svg version="1.1" id="_x39_bd8837e-6a32-469b-9c65-eb2a44b6ad9f"
	 xmlns="http://www.w3.org/2000/svg" xmlns:xlink="http://www.w3.org/1999/xlink" x="0px" y="0px" viewBox="0 0 1111 836.3"
	 style="enable-background:new 0 0 1111 836.3;" xml:space="preserve">
<style type="text/css">
	.st0{opacity:0.1;fill:#6DC9F7;enable-background:new    ;}
	.st1{fill:url(#SVGID_1_);}
	.st2{fill:#535461;}
	.st3{fill:#D6D6E3;}
	.st4{fill:#A8A8A8;}
	.st5{fill:#6DC9F7;}
	.st6{opacity:0.1;}
	.st7{fill:#FFFFFF;}
	.st8{fill:#575988;}
	.st9{fill:#FA595F;}
	.st10{fill:#FFD037;}
	.st11{fill:#FA759E;}
	.st12{fill:url(#SVGID_2_);}
	.st13{opacity:8.000000e-02;}
	.st14{fill:url(#SVGID_3_);}
	.st15{fill:url(#SVGID_4_);}
	.st16{fill:url(#SVGID_5_);}
	.st17{opacity:5.000000e-02;}
	.st18{fill:url(#SVGID_6_);}
	.st19{fill:url(#SVGID_7_);}
	.st20{fill:url(#SVGID_8_);}
	.st21{fill:url(#SVGID_9_);}
	.st22{fill:url(#SVGID_10_);}
	.st23{fill:url(#SVGID_11_);}
	.st24{fill:url(#SVGID_12_);}
	.st25{fill:url(#SVGID_13_);}
	.st26{fill:url(#SVGID_14_);}
	.st27{fill:url(#SVGID_15_);}
	.st28{fill:url(#SVGID_16_);}
	.st29{fill:url(#SVGID_17_);}
	.st30{fill:url(#SVGID_18_);}
	.st31{fill:url(#SVGID_19_);}
	.st32{fill:url(#SVGID_20_);}
	.st33{fill:url(#SVGID_21_);}
	.st34{fill:url(#SVGID_22_);}
	.st35{fill:url(#SVGID_23_);}
	.st36{fill:url(#SVGID_24_);}
	.st37{opacity:5.000000e-02;fill:url(#SVGID_25_);enable-background:new    ;}
	.st38{fill:#F7C4A7;}
	.st39{opacity:8.000000e-02;enable-background:new    ;}
	.st40{opacity:0.1;enable-background:new    ;}
	.st41{opacity:5.000000e-02;fill:#3A2C60;enable-background:new    ;}
	.st42{fill:#6A5C99;}
	.st43{fill:#3A2C60;}
	.st44{fill:#632652;}
	.st45{opacity:5.000000e-02;enable-background:new    ;}
</style>
<path class="st0" d="M935.1,163.9c7.3,69.4,64,127.6,117.6,166.6c17.9,13.1,37.3,26.5,48.6,48c13.8,26.2,11.4,57.1,2.5,80.6
	c-16.1,42.8-52.2,70-93.9,70.8c-36,0.7-74.6-16.9-110.4-14.9c-59.9,3.3-99.3,60.2-124.8,120.4c-18,42.6-35.5,92.4-75.5,103
	c-28.2,7.5-61.6-7.2-89.8-29.6c-13.6-10.8-27.1-23.7-42-28.4c-8.9-2.8-17.6-2.5-26-1.3c-76.5,11.1-127,91-204.9,96.6
	c-52.6,3.8-110.2-27.9-157.4-73S93.3,600,56.8,542.2C30.9,501.1,4.4,456,0.5,409.2c-4.2-49.5,19-91.1,51.8-111.7s74-23,114.7-18.6
	c50.9,5.5,105.3,20.9,149.4,1.2c30-13.4,51.6-41.7,74.9-66.4c39-41.2,84.4-73.4,129.9-104.8c43.6-30,88-59.6,138-76
	c35.4-11.6,73.1-7.7,109.5-14.4c23.7-4.4,43.5-18,68.4-18.6c30.7-0.8,68.6,12.4,87.9,51.4C943.4,88.5,931.3,127,935.1,163.9z"/>
<linearGradient id="SVGID_1_" gradientUnits="userSpaceOnUse" x1="615.845" y1="59.61" x2="615.845" y2="799.58" gradientTransform="matrix(1 0 0 -1 -44.49 806.17)">
	<stop  offset="0" style="stop-color:#808080;stop-opacity:0.25"/>
	<stop  offset="0.54" style="stop-color:#808080;stop-opacity:0.12"/>
	<stop  offset="1" style="stop-color:#808080;stop-opacity:0.1"/>
</linearGradient>
<path class="st1" d="M790.1,13.6l-68.3-4.1l-39.5-2.8V6.6h-0.5h-0.5v0.1l-212.5,17h-17.6L449,97l34.2,12.1L504,214.6l-94.3,186.9
	l-57,43.2v41.2l34.2,33.2l2.1,151.7l10.4,2v-1.6l5.2,1v0.6l202.5,68.1l8.5,5.8l17.8-11.1l143.4-82.8L790.1,13.6z M572.4,484.9
	L572.4,484.9l55.5-47l0,0L572.4,484.9z M380.1,504.4l15,14.6v0.9L380.1,504.4z"/>
<polygon class="st2" points="407.4,522.1 609.3,573.1 579.3,539.1 562.3,518.1 385.4,483.1 377.4,490.1 "/>
<polygon class="st3" points="377.4,490.1 576.3,536.1 577.3,488.1 520.3,466.1 406.4,447.1 373.4,447.1 "/>
<polygon class="st3" points="521.3,218.1 724.3,231.1 724.3,193.1 710.3,108.1 703.3,102.1 500.4,108.1 "/>
<polygon class="st3" points="473.4,27.1 463.4,27.1 461.4,100.1 494.4,112.1 514.3,217.1 423.4,403.1 368.4,446.1 368.4,487.1 
	401.4,520.1 403.4,671.1 413.4,673.1 411.4,523.1 378.4,488.1 377.4,446.1 430.4,404.1 523.3,218.1 503.4,112.1 470.4,98.1 
	473.4,27.1 "/>
<polygon class="st2" points="465.4,27.1 455.4,27.1 453.4,100.1 486.4,112.1 506.4,217.1 415.4,403.1 360.4,446.1 360.4,487.1 
	393.4,520.1 395.4,671.1 405.4,673.1 403.4,523.1 370.4,488.1 369.4,446.1 424.4,404.1 515.3,218.1 495.4,112.1 462.4,98.1 
	465.4,27.1 "/>
<polygon class="st4" points="464.9,92.6 469.9,99.6 497.9,112.6 719.8,106.6 698.3,100.1 675.3,90.1 678.3,82.1 "/>
<polygon class="st5" points="427.4,407.1 630.3,440.1 671.3,353.1 727.3,228.1 521.3,218.1 "/>
<g class="st6">
	<polygon class="st7" points="532.3,254.1 669.3,265.1 598.3,405.1 465.4,385.1 	"/>
</g>
<g class="st6">
	<polygon class="st7" points="541.8,264.3 547.8,264.7 544.7,270.9 538.8,270 	"/>
</g>
<g class="st6">
	<polygon class="st7" points="542.8,322.3 548.8,322.7 545.7,328.9 539.8,328 	"/>
</g>
<g class="st6">
	<polygon class="st7" points="575.8,271.3 581.8,271.7 578.7,277.9 572.8,277 	"/>
</g>
<g class="st6">
	<polygon class="st7" points="638.8,274.3 644.8,274.7 641.7,280.9 635.8,280 	"/>
</g>
<g class="st6">
	<polygon class="st7" points="553.8,282.3 559.8,282.7 556.7,288.9 550.8,288 	"/>
</g>
<g class="st6">
	<polygon class="st7" points="575.8,343.3 581.8,343.7 578.7,349.9 572.8,349 	"/>
</g>
<g class="st6">
	<polygon class="st7" points="521.8,308.3 527.8,308.7 524.7,314.9 518.8,314 	"/>
</g>
<g class="st6">
	<polygon class="st7" points="613.8,271.3 619.8,271.7 616.7,277.9 610.8,277 	"/>
</g>
<g class="st6">
	<polygon class="st7" points="565.8,305.3 571.8,305.7 568.7,311.9 562.8,311 	"/>
</g>
<g class="st6">
	<polygon class="st7" points="558.8,267.3 564.8,267.7 561.7,273.9 555.8,273 	"/>
</g>
<g class="st6">
	<polygon class="st7" points="589.8,302.3 595.8,302.7 592.7,308.9 586.8,308 	"/>
</g>
<g class="st6">
	<polygon class="st7" points="596.8,271.3 602.8,271.7 599.7,277.9 593.8,277 	"/>
</g>
<g class="st6">
	<polygon class="st7" points="533.8,285.3 539.8,285.7 536.7,291.9 530.8,291 	"/>
</g>
<polygon class="st3" points="373.4,447.1 571.3,487.1 625.9,439.4 427.9,405.6 "/>
<polygon class="st2" points="410.4,517.1 410.4,673.1 606.3,741.1 609.3,579.1 601.3,564 565.3,555.1 "/>
<ellipse class="st8" cx="435.9" cy="420.1" rx="8.5" ry="5"/>
<ellipse class="st9" cx="442.9" cy="431.1" rx="8.5" ry="5"/>
<ellipse class="st10" cx="418.9" cy="428.1" rx="8.5" ry="5"/>
<ellipse class="st8" cx="526.8" cy="438.1" rx="8.5" ry="5"/>
<ellipse class="st10" cx="509.9" cy="447.1" rx="8.5" ry="5"/>
<ellipse class="st4" cx="477.9" cy="432.1" rx="12.5" ry="6"/>
<ellipse class="st11" cx="535.8" cy="449.1" rx="8.5" ry="5"/>
<path class="st4" d="M481.4,431.1h-6l-5.2-19.9c-0.8-3,1-6.1,4.1-6.9c0.5-0.1,0.9-0.2,1.4-0.2l0,0c3.1,0,5.7,2.5,5.7,5.7
	L481.4,431.1z"/>
<ellipse class="st4" cx="567.8" cy="448.1" rx="12.5" ry="6"/>
<path class="st4" d="M571.4,447.1h-6l-5.2-19.9c-0.8-3,1-6.1,4.1-6.9c0.5-0.1,0.9-0.2,1.4-0.2l0,0c3.1,0,5.7,2.5,5.7,5.7
	L571.4,447.1z"/>
<polygon class="st2" points="472.4,27.1 678.3,10.1 673.3,85.1 467.4,95.1 "/>
<polygon class="st3" points="677.3,10.1 772.3,17.1 759.3,653.1 613.8,746.6 603.8,739.6 603.3,573.1 571.3,537.1 571.3,487.1 
	627.3,438.1 722.3,227.1 708.8,106.6 715.8,106.6 671.3,91.1 "/>
<polygon class="st2" points="686.3,11.1 782.3,17.1 769.3,653.1 613.3,746.1 613.3,573.1 581.3,537.1 581.3,487.1 637.3,438.1 
	732.3,227.1 715.3,106.1 681.3,91.1 "/>
<linearGradient id="SVGID_2_" gradientUnits="userSpaceOnUse" x1="523.2408" y1="387.433" x2="523.2408" y2="422.3904" gradientTransform="matrix(1 0 0 -1 -44.49 806.17)">
	<stop  offset="0" style="stop-color:#808080;stop-opacity:0.25"/>
	<stop  offset="0.54" style="stop-color:#808080;stop-opacity:0.12"/>
	<stop  offset="1" style="stop-color:#808080;stop-opacity:0.1"/>
</linearGradient>
<path class="st12" d="M517.5,396.4c-14,29-48.5,21.5-48.5,21.5c-1.8-1.6-12.9-4.4-21.4-6.3c-5.4-1.2-9.7-2.1-9.7-2.1l11.8-16.5
	l8.9,1.8l13.2,2.7C471.8,397.5,531.5,367.4,517.5,396.4z"/>
<g class="st13">
	
		<linearGradient id="SVGID_3_" gradientUnits="userSpaceOnUse" x1="523.2408" y1="387.433" x2="523.2408" y2="422.3904" gradientTransform="matrix(1 0 0 -1 -44.49 806.17)">
		<stop  offset="0" style="stop-color:#808080;stop-opacity:0.25"/>
		<stop  offset="0.54" style="stop-color:#808080;stop-opacity:0.12"/>
		<stop  offset="1" style="stop-color:#808080;stop-opacity:0.1"/>
	</linearGradient>
	<path class="st14" d="M517.5,396.4c-14,29-48.5,21.5-48.5,21.5c-1.8-1.6-12.9-4.4-21.4-6.3c-5.4-1.2-9.7-2.1-9.7-2.1l11.8-16.5
		l8.9,1.8l13.2,2.7C471.8,397.5,531.5,367.4,517.5,396.4z"/>
</g>
<g class="st6">
	
		<linearGradient id="SVGID_4_" gradientUnits="userSpaceOnUse" x1="492.735" y1="394.62" x2="492.735" y2="413.2" gradientTransform="matrix(1 0 0 -1 -44.49 806.17)">
		<stop  offset="0" style="stop-color:#808080;stop-opacity:0.25"/>
		<stop  offset="0.54" style="stop-color:#808080;stop-opacity:0.12"/>
		<stop  offset="1" style="stop-color:#808080;stop-opacity:0.1"/>
	</linearGradient>
	<path class="st15" d="M458.6,394.8l-11,16.8c-5.4-1.2-9.7-2.1-9.7-2.1l11.8-16.5L458.6,394.8z"/>
</g>
<linearGradient id="SVGID_5_" gradientUnits="userSpaceOnUse" x1="440.0142" y1="390.9297" x2="440.0142" y2="509.1004" gradientTransform="matrix(1 0 0 -1 -44.49 806.17)">
	<stop  offset="0" style="stop-color:#808080;stop-opacity:0.25"/>
	<stop  offset="0.54" style="stop-color:#808080;stop-opacity:0.12"/>
	<stop  offset="1" style="stop-color:#808080;stop-opacity:0.1"/>
</linearGradient>
<path class="st16" d="M335.6,334.8c0,0,51.6,80.6,106.8,80.4l15-23c0,0-50.5-36.1-57.3-54.9c-2.5-7-7.6-16.6-13.1-26
	c-16.8-28.8-62-10-52.1,21.7C335.2,333.6,335.4,334.2,335.6,334.8z"/>
<g class="st17">
	
		<linearGradient id="SVGID_6_" gradientUnits="userSpaceOnUse" x1="440.0142" y1="390.9297" x2="440.0142" y2="509.1004" gradientTransform="matrix(1 0 0 -1 -44.49 806.17)">
		<stop  offset="0" style="stop-color:#808080;stop-opacity:0.25"/>
		<stop  offset="0.54" style="stop-color:#808080;stop-opacity:0.12"/>
		<stop  offset="1" style="stop-color:#808080;stop-opacity:0.1"/>
	</linearGradient>
	<path class="st18" d="M335.6,334.8c0,0,51.6,80.6,106.8,80.4l15-23c0,0-50.5-36.1-57.3-54.9c-2.5-7-7.6-16.6-13.1-26
		c-16.8-28.8-62-10-52.1,21.7C335.2,333.6,335.4,334.2,335.6,334.8z"/>
</g>
<linearGradient id="SVGID_7_" gradientUnits="userSpaceOnUse" x1="387.0222" y1="-25.1" x2="387.0222" y2="23.6852" gradientTransform="matrix(1 0 0 -1 -44.49 806.17)">
	<stop  offset="0" style="stop-color:#808080;stop-opacity:0.25"/>
	<stop  offset="0.54" style="stop-color:#808080;stop-opacity:0.12"/>
	<stop  offset="1" style="stop-color:#808080;stop-opacity:0.1"/>
</linearGradient>
<path class="st19" d="M302.1,803.3l2.4,28c0,0,79.2-13.2,78.5-39.5S302.1,803.3,302.1,803.3z"/>
<g class="st6">
	
		<linearGradient id="SVGID_8_" gradientUnits="userSpaceOnUse" x1="387.0222" y1="-25.1" x2="387.0222" y2="23.6852" gradientTransform="matrix(1 0 0 -1 -44.49 806.17)">
		<stop  offset="0" style="stop-color:#808080;stop-opacity:0.25"/>
		<stop  offset="0.54" style="stop-color:#808080;stop-opacity:0.12"/>
		<stop  offset="1" style="stop-color:#808080;stop-opacity:0.1"/>
	</linearGradient>
	<path class="st20" d="M302.1,803.3l2.4,28c0,0,79.2-13.2,78.5-39.5S302.1,803.3,302.1,803.3z"/>
</g>
<linearGradient id="SVGID_9_" gradientUnits="userSpaceOnUse" x1="490.8475" y1="-30.16" x2="490.8475" y2="14.5338" gradientTransform="matrix(1 0 0 -1 -44.49 806.17)">
	<stop  offset="0" style="stop-color:#808080;stop-opacity:0.25"/>
	<stop  offset="0.54" style="stop-color:#808080;stop-opacity:0.12"/>
	<stop  offset="1" style="stop-color:#808080;stop-opacity:0.1"/>
</linearGradient>
<path class="st21" d="M394.8,812l-1.4,24.3c0,0,110-8.1,105.8-31S437,795.2,437,795.2L394.8,812z"/>
<linearGradient id="SVGID_10_" gradientUnits="userSpaceOnUse" x1="389.785" y1="-4.6777" x2="389.785" y2="326.1299" gradientTransform="matrix(1 0 0 -1 -44.49 806.17)">
	<stop  offset="0" style="stop-color:#808080;stop-opacity:0.25"/>
	<stop  offset="0.54" style="stop-color:#808080;stop-opacity:0.12"/>
	<stop  offset="1" style="stop-color:#808080;stop-opacity:0.1"/>
</linearGradient>
<path class="st22" d="M396.1,574.5c0,0-6.5,18-14.8,38.6c-7.9,19.7-17.5,41.9-24.6,53.1c-14.5,22.9-16.6,93.8-16.6,93.8
	c-2.8,11.5,11.1,33.7,11.1,33.7c-27.7,29-53.3,12.2-53.3,12.2c4.8-8.8-3.5-33.7-3.5-33.7s11.1-115.4,18-120.8s12.5-32.4,12.5-32.4
	l-6.2-91.7l-1.4-21l59.5-26.3l4.3,20.9l4.3,20.7L396.1,574.5z"/>
<g class="st6">
	
		<linearGradient id="SVGID_11_" gradientUnits="userSpaceOnUse" x1="389.785" y1="-4.6777" x2="389.785" y2="326.1299" gradientTransform="matrix(1 0 0 -1 -44.49 806.17)">
		<stop  offset="0" style="stop-color:#808080;stop-opacity:0.25"/>
		<stop  offset="0.54" style="stop-color:#808080;stop-opacity:0.12"/>
		<stop  offset="1" style="stop-color:#808080;stop-opacity:0.1"/>
	</linearGradient>
	<path class="st23" d="M396.1,574.5c0,0-6.5,18-14.8,38.6c-7.9,19.7-17.5,41.9-24.6,53.1c-14.5,22.9-16.6,93.8-16.6,93.8
		c-2.8,11.5,11.1,33.7,11.1,33.7c-27.7,29-53.3,12.2-53.3,12.2c4.8-8.8-3.5-33.7-3.5-33.7s11.1-115.4,18-120.8s12.5-32.4,12.5-32.4
		l-6.2-91.7l-1.4-21l59.5-26.3l4.3,20.9l4.3,20.7L396.1,574.5z"/>
</g>
<linearGradient id="SVGID_12_" gradientUnits="userSpaceOnUse" x1="440.975" y1="-10.7081" x2="440.975" y2="305.22" gradientTransform="matrix(1 0 0 -1 -44.49 806.17)">
	<stop  offset="0" style="stop-color:#808080;stop-opacity:0.25"/>
	<stop  offset="0.54" style="stop-color:#808080;stop-opacity:0.12"/>
	<stop  offset="1" style="stop-color:#808080;stop-opacity:0.1"/>
</linearGradient>
<path class="st24" d="M448,797.9c-12.5,21.6-56,18.9-56,18.9v-63.4c0,0-12.5-70.8-5.5-87s-2.8-45.9-2.8-45.9l-2.4-7.3l-28.2-87
	L345,501h93.4c0,0,0,4.3,0,11.3c0.1,27,0.7,93.9,3.4,109.4c3.5,19.6-6.2,32.4-6.2,32.4s5.5,79.6,0.7,104.6S448,797.9,448,797.9z"/>
<linearGradient id="SVGID_13_" gradientUnits="userSpaceOnUse" x1="413.1378" y1="529.87" x2="413.1378" y2="601.39" gradientTransform="matrix(1 0 0 -1 -44.49 806.17)">
	<stop  offset="0" style="stop-color:#808080;stop-opacity:0.25"/>
	<stop  offset="0.54" style="stop-color:#808080;stop-opacity:0.12"/>
	<stop  offset="1" style="stop-color:#808080;stop-opacity:0.1"/>
</linearGradient>
<path class="st25" d="M371.2,204.8c0,0-14.5,39.1-43.6,53.3c-29,14.2,47.7,18.2,47.7,18.2s12.5-29.7,40.8-50.6L371.2,204.8z"/>
<g class="st6">
	
		<linearGradient id="SVGID_14_" gradientUnits="userSpaceOnUse" x1="422.315" y1="278.1022" x2="422.315" y2="326.14" gradientTransform="matrix(1 0 0 -1 -44.49 806.17)">
		<stop  offset="0" style="stop-color:#808080;stop-opacity:0.25"/>
		<stop  offset="0.54" style="stop-color:#808080;stop-opacity:0.12"/>
		<stop  offset="1" style="stop-color:#808080;stop-opacity:0.1"/>
	</linearGradient>
	<path class="st26" d="M438.4,512.3c-11.6,2.2-32.1,6-53.1,9.4c-11,1.7-22.1,3.3-32.2,4.5c-15.5,1.8-28.4,2.5-34.4,1.1l-1.4-21
		l59.5-26.3l4.3,20.9h57.3C438.3,500.9,438.3,505.3,438.4,512.3z"/>
</g>
<linearGradient id="SVGID_15_" gradientUnits="userSpaceOnUse" x1="415.5973" y1="280.1175" x2="415.5973" y2="556.8509" gradientTransform="matrix(1 0 0 -1 -44.49 806.17)">
	<stop  offset="0" style="stop-color:#808080;stop-opacity:0.25"/>
	<stop  offset="0.54" style="stop-color:#808080;stop-opacity:0.12"/>
	<stop  offset="1" style="stop-color:#808080;stop-opacity:0.1"/>
</linearGradient>
<path class="st27" d="M448,508.4c0,0-116.9,23.6-131.4,16.2s-18-26.3-13.8-47.2s0-72.9-7.6-139c-3.8-33.3,4.6-55.6,14-69.6
	c8.3-12.2,22.2-19.5,37-19.4c12.6-0.1,24.9,4.2,34.9,12c2.9,2.3,5.9,4.2,8.3,4.9c1.9,0.5,4.8,2.5,8,5.3c14.4,12.4,23.5,30,25.3,48.9
	c1.2,12.6,2.5,28.4,3.1,44.4c0.6,13.7,0.5,27.4-0.4,41c-0.6,10-0.2,20,1.4,29.9C432,472.2,448,508.4,448,508.4z"/>
<g class="st6">
	
		<linearGradient id="SVGID_16_" gradientUnits="userSpaceOnUse" x1="438.8732" y1="370.41" x2="438.8732" y2="498.7594" gradientTransform="matrix(1 0 0 -1 -44.49 806.17)">
		<stop  offset="0" style="stop-color:#808080;stop-opacity:0.25"/>
		<stop  offset="0.54" style="stop-color:#808080;stop-opacity:0.12"/>
		<stop  offset="1" style="stop-color:#808080;stop-opacity:0.1"/>
	</linearGradient>
	<path class="st28" d="M426.6,435.8c-42.4-25.8-64.4-98.1-64.4-98.1c0-0.6,0-1.3-0.1-1.9c-1-33.1,47.8-39.5,56.1-7.4
		c2.7,10.5,5,21.1,5.5,28.4c0.3,2.7,0.9,5.4,1.9,7.9c0.6,13.7,0.5,27.4-0.4,41C424.5,415.8,425,425.9,426.6,435.8z"/>
</g>
<g class="st6">
	
		<linearGradient id="SVGID_17_" gradientUnits="userSpaceOnUse" x1="433.535" y1="553.26" x2="433.535" y2="597.34" gradientTransform="matrix(1 0 0 -1 -44.49 806.17)">
		<stop  offset="0" style="stop-color:#808080;stop-opacity:0.25"/>
		<stop  offset="0.54" style="stop-color:#808080;stop-opacity:0.12"/>
		<stop  offset="1" style="stop-color:#808080;stop-opacity:0.1"/>
	</linearGradient>
	<path class="st29" d="M364,228.1c6.9,11.4,12.4,22.9,26.4,24.9c6.9-8.7,14.9-16.5,23.8-23.2l-45-20.9
		C369.1,208.8,371.8,216,364,228.1z"/>
</g>
<linearGradient id="SVGID_18_" gradientUnits="userSpaceOnUse" x1="398.91" y1="588.7" x2="398.91" y2="677.76" gradientTransform="matrix(1 0 0 -1 0 838)">
	<stop  offset="0" style="stop-color:#808080;stop-opacity:0.25"/>
	<stop  offset="0.54" style="stop-color:#808080;stop-opacity:0.12"/>
	<stop  offset="1" style="stop-color:#808080;stop-opacity:0.1"/>
</linearGradient>
<ellipse class="st30" cx="398.9" cy="204.8" rx="45.7" ry="44.5"/>
<g class="st6">
	
		<linearGradient id="SVGID_19_" gradientUnits="userSpaceOnUse" x1="442.21" y1="567.6346" x2="442.21" y2="667.6638" gradientTransform="matrix(1 0 0 -1 -44.49 806.17)">
		<stop  offset="0" style="stop-color:#808080;stop-opacity:0.25"/>
		<stop  offset="0.54" style="stop-color:#808080;stop-opacity:0.12"/>
		<stop  offset="1" style="stop-color:#808080;stop-opacity:0.1"/>
	</linearGradient>
	<path class="st31" d="M444,218.7c1.9,0.1,3.8-0.4,5.4-1.4c2.2-1.6,2.9-4.4,3.4-7.1c1.2-6.2,2.1-12.7,0-18.7
		c-1.4-3.9-4-7.4-5.8-11.1c-4.1-8.2-4.8-18-10.7-25.1c-3.6-4.4-16.5,0-21.8-2.2c-11.5-4.8-16.5-14.7-29.1-14.6
		c-4.6-0.1-9.2,0.5-13.6,1.7c-5.6,1.7-10.6,5-15.2,8.6c-8,6.2-15.8,14.8-15.1,24.7c0.5,6.4,4.4,12,6.6,17.9
		c3.8,10,3.1,21.2,0.4,31.6c-1.2,4.4-2.5,9.7,0.6,13.1c2,2.1,5.2,2.7,8,2.3c2.8-0.6,5.5-1.7,8-3.2c4.5-2.4,9.1-4.8,12.7-8.3
		c2.4-2.3,4.4-5.1,6.6-7.5c4.5-4.6,9.6-8.7,15.1-12c4.4-2.7,9-1,13.6,0.7C423.4,211.8,432.8,218.9,444,218.7z"/>
</g>
<linearGradient id="SVGID_20_" gradientUnits="userSpaceOnUse" x1="441.52" y1="568.3146" x2="441.52" y2="668.3438" gradientTransform="matrix(1 0 0 -1 -44.49 806.17)">
	<stop  offset="0" style="stop-color:#808080;stop-opacity:0.25"/>
	<stop  offset="0.54" style="stop-color:#808080;stop-opacity:0.12"/>
	<stop  offset="1" style="stop-color:#808080;stop-opacity:0.1"/>
</linearGradient>
<path class="st32" d="M443.4,218.1c1.9,0.1,3.8-0.4,5.4-1.4c2.2-1.6,2.9-4.4,3.4-7.1c1.2-6.2,2.1-12.7,0-18.7
	c-1.4-3.9-4-7.4-5.8-11.1c-4.1-8.2-4.8-18-10.7-25.1c-3.6-4.4-15.8,0.7-21.1-1.6c-11.5-4.8-17.2-15.3-29.8-15.3
	c-4.6-0.1-9.2,0.5-13.6,1.7c-5.6,1.7-10.6,5-15.2,8.6c-8,6.2-15.8,14.8-15.1,24.7c0.5,6.4,4.4,12,6.6,17.9c3.8,10,3.1,21.2,0.4,31.6
	c-1.2,4.4-2.5,9.7,0.6,13c2,2.1,5.2,2.7,8,2.3c2.8-0.6,5.5-1.7,8-3.2c4.5-2.4,9.1-4.8,12.7-8.3c2.4-2.3,4.4-5.1,6.6-7.5
	c4.5-4.6,9.6-8.7,15.1-12c4.4-2.7,9-1,13.6,0.7C422.7,211.2,432.1,218.3,443.4,218.1z"/>
<g class="st17">
	
		<linearGradient id="SVGID_21_" gradientUnits="userSpaceOnUse" x1="429.945" y1="280.126" x2="429.945" y2="547.0431" gradientTransform="matrix(1 0 0 -1 -44.49 806.17)">
		<stop  offset="0" style="stop-color:#808080;stop-opacity:0.25"/>
		<stop  offset="0.54" style="stop-color:#808080;stop-opacity:0.12"/>
		<stop  offset="1" style="stop-color:#808080;stop-opacity:0.1"/>
	</linearGradient>
	<path class="st33" d="M426.6,435.8c-1.6-9.9-2.1-19.9-1.4-29.9c0.9-13.6,1.1-27.3,0.4-41c-0.6-16-1.9-31.8-3.1-44.4
		c-1.8-19-10.9-36.5-25.3-48.9c-3.2-2.8-6.1-4.8-8-5.3c-2.4-0.6-5.4-2.6-8.3-4.9c-9.8-7.8,2.7,7.4,5.9,10.2
		c14.5,12.4,23.5,30,25.3,48.9c1.2,12.6,2.5,28.4,3.1,44.4c0.6,13.7,0.5,27.4-0.4,41c-0.6,10-0.2,20,1.4,29.9
		c5.4,36.4,21.4,72.6,21.4,72.6s-78.3,15.8-114.7,17.5c28.5,2,125.1-17.5,125.1-17.5S432,472.2,426.6,435.8z"/>
</g>
<linearGradient id="SVGID_22_" gradientUnits="userSpaceOnUse" x1="528.5643" y1="350.4944" x2="528.5643" y2="384.8" gradientTransform="matrix(1 0 0 -1 -44.49 806.17)">
	<stop  offset="0" style="stop-color:#808080;stop-opacity:0.25"/>
	<stop  offset="0.54" style="stop-color:#808080;stop-opacity:0.12"/>
	<stop  offset="1" style="stop-color:#808080;stop-opacity:0.1"/>
</linearGradient>
<path class="st34" d="M522,442.3c-21.5,24.3-52.6,8.1-52.6,8.1c-1.3-2.1-11.3-7.6-18.9-11.6c-4.9-2.6-8.8-4.5-8.8-4.5l15.9-12.8
	l8,4.1l12,6.1C477.8,431.5,543.5,418,522,442.3z"/>
<g class="st6">
	
		<linearGradient id="SVGID_23_" gradientUnits="userSpaceOnUse" x1="498.27" y1="367.43" x2="498.27" y2="384.8" gradientTransform="matrix(1 0 0 -1 -44.49 806.17)">
		<stop  offset="0" style="stop-color:#808080;stop-opacity:0.25"/>
		<stop  offset="0.54" style="stop-color:#808080;stop-opacity:0.12"/>
		<stop  offset="1" style="stop-color:#808080;stop-opacity:0.1"/>
	</linearGradient>
	<path class="st35" d="M465.8,425.4l-15.1,13.3c-4.9-2.6-8.8-4.5-8.8-4.5l15.9-12.8L465.8,425.4z"/>
</g>
<linearGradient id="SVGID_24_" gradientUnits="userSpaceOnUse" x1="458.9232" y1="365.23" x2="458.9232" y2="500.7753" gradientTransform="matrix(1 0 0 -1 -44.49 806.17)">
	<stop  offset="0" style="stop-color:#808080;stop-opacity:0.25"/>
	<stop  offset="0.54" style="stop-color:#808080;stop-opacity:0.12"/>
	<stop  offset="1" style="stop-color:#808080;stop-opacity:0.1"/>
</linearGradient>
<path class="st36" d="M363.6,335.7c0,0,27.7,91.1,80.9,105.3l20.8-18.2c0,0-38.8-47.9-40.2-67.8c-0.5-7.4-2.8-18-5.5-28.4
	c-8.3-32.1-57.1-25.8-56.1,7.4C363.6,334.4,363.6,335.1,363.6,335.7z"/>
<linearGradient id="SVGID_25_" gradientUnits="userSpaceOnUse" x1="393.94" y1="375.01" x2="393.94" y2="389.189" gradientTransform="matrix(1 0 0 -1 -44.49 806.17)">
	<stop  offset="0" style="stop-color:#808080;stop-opacity:0.25"/>
	<stop  offset="0.54" style="stop-color:#808080;stop-opacity:0.12"/>
	<stop  offset="1" style="stop-color:#808080;stop-opacity:0.1"/>
</linearGradient>
<path class="st37" d="M310,424.4c0,0,18-14.2,34.6-3.4s40.8,9.5,44.3,10.1"/>
<path class="st38" d="M512.3,394.9c-13.3,28.3-46.1,21-46.1,21c-1.7-1.6-12.3-4.3-20.3-6.2c-5.2-1.2-9.3-2-9.3-2l11.3-16.1l8.4,1.8
	l12.6,2.6C468.9,396.1,525.6,366.6,512.3,394.9z"/>
<path class="st39" d="M512.3,394.9c-13.3,28.3-46.1,21-46.1,21c-1.7-1.6-12.3-4.3-20.3-6.2c-5.2-1.2-9.3-2-9.3-2l11.3-16.1l8.4,1.8
	l12.6,2.6C468.9,396.1,525.6,366.6,512.3,394.9z"/>
<path class="st40" d="M456.3,393.3l-10.4,16.4c-5.2-1.2-9.3-2-9.3-2l11.3-16.1L456.3,393.3z"/>
<path class="st8" d="M339.2,334.9c0,0,49.1,78.6,101.6,78.4l14.3-22.4c0,0-48.1-35.2-54.5-53.6c-2.4-6.8-7.2-16.2-12.4-25.3
	c-16-28.1-59-9.8-49.5,21.2C338.9,333.7,339.1,334.3,339.2,334.9z"/>
<path class="st41" d="M339.2,334.9c0,0,49.1,78.6,101.6,78.4l14.3-22.4c0,0-48.1-35.2-54.5-53.6c-2.4-6.8-7.2-16.2-12.4-25.3
	c-16-28.1-59-9.8-49.5,21.2C338.9,333.7,339.1,334.3,339.2,334.9z"/>
<path class="st2" d="M307.3,791.9l2.3,27.3c0,0,75.4-12.8,74.7-38.5S307.3,791.9,307.3,791.9z"/>
<path class="st40" d="M307.3,791.9l2.3,27.3c0,0,75.4-12.8,74.7-38.5S307.3,791.9,307.3,791.9z"/>
<path class="st2" d="M395.5,800.5l-1.3,23.7c0,0,104.7-7.9,100.7-30.3s-59.3-9.9-59.3-9.9L395.5,800.5z"/>
<path class="st42" d="M396.8,568.7c0,0-6.2,17.5-14.1,37.7c-7.6,19.3-16.7,40.9-23.4,51.8c-13.8,22.4-15.8,91.5-15.8,91.5
	c-2.6,11.2,10.5,32.9,10.5,32.9c-26.3,28.3-50.7,11.8-50.7,11.8c4.6-8.6-3.3-32.9-3.3-32.9s10.5-112.6,17.1-117.8
	s11.8-31.6,11.8-31.6l-5.9-89.5l-1.4-20.4l56.6-25.7l4.1,20.4l4,20.2L396.8,568.7z"/>
<path class="st40" d="M396.8,568.7c0,0-6.2,17.5-14.1,37.7c-7.6,19.3-16.7,40.9-23.4,51.8c-13.8,22.4-15.8,91.5-15.8,91.5
	c-2.6,11.2,10.5,32.9,10.5,32.9c-26.3,28.3-50.7,11.8-50.7,11.8c4.6-8.6-3.3-32.9-3.3-32.9s10.5-112.6,17.1-117.8
	s11.8-31.6,11.8-31.6l-5.9-89.5l-1.4-20.4l56.6-25.7l4.1,20.4l4,20.2L396.8,568.7z"/>
<path class="st42" d="M446.2,786.6c-11.9,21.1-53.3,18.4-53.3,18.4v-61.9c0,0-11.9-69.1-5.3-84.9s-2.6-44.8-2.6-44.8l-2.2-7.1
	l-26.9-84.8l-7.8-24.6H437c0,0,0,4.2,0,11.1c0.1,26.3,0.6,91.6,3.3,106.8c3.3,19.1-5.9,31.6-5.9,31.6s5.3,77.7,0.7,102
	S446.2,786.6,446.2,786.6z"/>
<path class="st38" d="M373.1,207.9c0,0-13.8,38.2-41.5,52c-27.7,13.8,45.4,17.8,45.4,17.8s11.9-29,38.8-49.4L373.1,207.9z"/>
<path class="st40" d="M437,508c-11,2.1-30.5,5.9-50.5,9.1c-10.5,1.7-21,3.3-30.6,4.4c-14.7,1.7-27.1,2.5-32.8,1.1l-1.4-20.4
	l56.6-25.7l4.1,20.4H437C437,497,437,501.2,437,508z"/>
<path class="st43" d="M446.2,504.2c0,0-111.3,23-125.1,15.8s-17.1-25.7-13.2-46.1s0-71.1-7.2-135.6c-3.6-32.5,4.4-54.3,13.3-67.9
	c7.8-11.9,21-19,35.2-19c12.1,0,23.8,4.1,33.2,11.7c2.8,2.3,5.6,4.1,7.9,4.8c1.8,0.5,4.5,2.5,7.6,5.1c13.8,12.3,22.5,29.3,24.1,47.8
	c1.1,12.3,2.4,27.7,2.9,43.3c0.6,13.3,0.5,26.7-0.4,40c-0.6,9.7-0.2,19.5,1.4,29.2C430.9,468.9,446.2,504.2,446.2,504.2z"/>
<path class="st40" d="M425.8,433.3c-40.4-25.2-61.3-95.7-61.3-95.7c0-0.6,0-1.2-0.1-1.8c-0.9-32.3,45.5-38.5,53.4-7.2
	c2.6,10.2,4.8,20.6,5.2,27.7c0.2,2.6,0.8,5.2,1.8,7.7c0.6,13.3,0.5,26.7-0.4,40C423.9,413.9,424.3,423.7,425.8,433.3z"/>
<path class="st40" d="M366.2,230.7c6.6,11.1,11.8,22.4,25.1,24.2c6.5-8.5,14.1-16.1,22.6-22.6l-42.8-20.4
	C371.2,211.9,373.6,218.9,366.2,230.7z"/>
<circle class="st38" cx="399.5" cy="207.9" r="43.5"/>
<path class="st40" d="M442.4,221.6c1.8,0.1,3.6-0.4,5.1-1.4c2.1-1.6,2.8-4.3,3.2-6.9c1.1-6,2-12.4,0-18.2c-1.3-3.9-3.8-7.2-5.6-10.8
	c-3.9-8-4.6-17.6-10.2-24.5c-3.5-4.3-15.7,0-20.8-2.2c-11-4.7-15.7-14.3-27.7-14.3c-4.4-0.1-8.8,0.4-13,1.7
	c-5.3,1.7-10.1,4.9-14.4,8.4c-7.6,6.1-15.1,14.4-14.4,24.1c0.4,6.2,4.1,11.7,6.3,17.5c3.7,9.8,3,20.7,0.4,30.8
	c-1.1,4.3-2.4,9.4,0.6,12.7c1.9,2,4.9,2.6,7.6,2.2c2.7-0.6,5.3-1.7,7.6-3.1c4.3-2.3,8.6-4.7,12.1-8.1c2.3-2.3,4.1-4.9,6.3-7.3
	c4.3-4.5,9.1-8.5,14.4-11.7c4.2-2.6,8.5-1,13,0.7C422.7,214.8,431.7,221.8,442.4,221.6z"/>
<path class="st44" d="M441.8,220.9c1.8,0.1,3.6-0.4,5.1-1.4c2.1-1.6,2.8-4.3,3.2-6.9c1.1-6,2-12.4,0-18.2c-1.3-3.9-3.8-7.2-5.6-10.8
	c-3.9-8-4.6-17.6-10.2-24.5c-3.5-4.3-15,0.7-20.1-1.5c-11-4.7-16.4-15-28.3-15c-4.4-0.1-8.8,0.4-13,1.7c-5.3,1.7-10.1,4.9-14.4,8.4
	c-7.6,6.1-15.1,14.4-14.4,24.1c0.4,6.2,4.1,11.7,6.3,17.5c3.7,9.8,3,20.7,0.4,30.8c-1.1,4.3-2.4,9.4,0.6,12.7c1.9,2,4.9,2.6,7.6,2.2
	c2.7-0.6,5.3-1.7,7.6-3.1c4.3-2.3,8.6-4.7,12.1-8.1c2.3-2.3,4.1-4.9,6.3-7.3c4.3-4.5,9.2-8.4,14.5-11.7c4.2-2.6,8.5-1,13,0.7
	C422.1,214.2,431.1,221.1,441.8,220.9z"/>
<path class="st45" d="M425.8,433.3c-1.5-9.6-1.9-19.4-1.3-29.1c0.9-13.3,1-26.7,0.4-40c-0.6-15.6-1.8-31.1-2.9-43.3
	c-1.7-18.4-10.3-35.5-24.1-47.8c-3-2.7-5.8-4.7-7.6-5.1c-2.3-0.6-5.1-2.5-7.9-4.8c-9.4-7.6,2.5,7.2,5.6,9.9
	c13.8,12.3,22.5,29.3,24.1,47.8c1.1,12.3,2.4,27.7,2.9,43.3c0.6,13.3,0.5,26.7-0.4,40c-0.6,9.7-0.2,19.5,1.4,29.2
	c5.1,35.5,20.4,70.9,20.4,70.9s-74.5,15.4-109.1,17.1c27.2,2,119-17.1,119-17.1S430.9,468.9,425.8,433.3z"/>
<path class="st38" d="M516.6,439.7c-20.4,23.7-50,7.9-50,7.9c-1.2-2-10.7-7.4-18-11.4c-4.6-2.5-8.4-4.4-8.4-4.4l15.1-12.5l7.7,4
	l11.4,5.9C474.5,429.2,537,416,516.6,439.7z"/>
<path class="st40" d="M463.1,423.2l-14.4,13c-4.6-2.5-8.4-4.4-8.4-4.4l15.1-12.5L463.1,423.2z"/>
<path class="st43" d="M365.9,335.7c0,0,26.3,88.9,77,102.7l19.8-17.8c0,0-37-46.8-38.2-66.2c-0.5-7.2-2.6-17.5-5.2-27.7
	c-7.9-31.4-54.3-25.1-53.4,7.2C365.8,334.5,365.9,335.1,365.9,335.7z"/>
<path class="st45" d="M314.9,422.2c0,0,17.1-13.8,32.9-3.3s38.8,9.2,42.1,9.9"/>
</svg>
