<?xml version="1.0" encoding="utf-8"?>
<!-- Generator: Adobe Illustrator 24.1.2, SVG Export Plug-In . SVG Version: 6.00 Build 0)  -->
<svg version="1.1" id="e8ff1d32-e56b-43e4-bec6-a62c88b24b37"
	 xmlns="http://www.w3.org/2000/svg" xmlns:xlink="http://www.w3.org/1999/xlink" x="0px" y="0px" viewBox="0 0 822 694.9"
	 style="enable-background:new 0 0 822 694.9;" xml:space="preserve">
<style type="text/css">
	.st0{fill:#F0F0F0;}
	.st1{fill:#FFFFFF;}
	.st2{fill:#E4E4E4;}
	.st3{fill:#3F3D56;}
	.st4{fill:#2F2E41;}
	.st5{fill:#FFB6B6;}
	.st6{fill:#FA759E;}
</style>
<path class="st0" d="M737,649.7l-13.8,12.7l11-18.4c-8.7-15.7-22.8-29.3-22.8-29.3S682,642.9,682,665s13.1,29.8,29.4,29.8
	c16.2,0,29.4-7.7,29.4-29.8C740.5,659.7,739.3,654.5,737,649.7z"/>
<path class="st1" d="M719.6,663.1v1.1c-0.1,12.7-2.2,22.6-6.4,29.5c-0.1,0.1-0.1,0.2-0.2,0.3l-0.5-0.3l-0.4-0.3
	c4.7-7.5,6.3-18.1,6.4-29.2c0-0.4,0-0.7,0-1.1c0-4.7-0.3-9.4-0.8-14c0-0.4-0.1-0.7-0.1-1.1c-0.6-6.1-1.6-11.9-2.5-16.9
	c-0.1-0.4-0.1-0.7-0.2-1.1c-1.6-8.5-3.3-14.7-3.7-16.1c0-0.2-0.1-0.3-0.1-0.3l0.5-0.1l0,0l0.5-0.1c0,0,0.1,0.3,0.2,0.9
	c0.6,2.1,2.1,7.9,3.6,15.6c0.1,0.3,0.1,0.7,0.2,1.1c0.8,4.1,1.5,8.7,2.1,13.4c0.2,1.2,0.3,2.4,0.4,3.6c0,0.4,0.1,0.7,0.1,1.1
	C719.3,654.1,719.6,658.8,719.6,663.1z"/>
<path class="st1" d="M716,630c-0.4,0-0.7,0.1-1.1,0.1c-1,0.1-2,0.2-3,0.2c-4.3,0-8.6-1-12.5-2.8c-0.2,0.3-0.5,0.6-0.7,0.9
	c4.1,2,8.6,3,13.2,3c1.1,0,2.2-0.1,3.2-0.2c0.4,0,0.7-0.1,1.1-0.1c3-0.4,5.9-1.3,8.6-2.6c-0.2-0.3-0.5-0.6-0.7-0.9
	C721.6,628.8,718.8,629.6,716,630z"/>
<path class="st1" d="M718.7,648.1c-0.4,0-0.7,0-1.1,0c-0.1,0-0.2,0-0.3,0c-9.5,0-18.5-4.7-23.9-12.5c-0.2,0.3-0.4,0.6-0.6,1
	c5.7,7.9,14.8,12.6,24.5,12.6c0.2,0,0.3,0,0.5,0c0.4,0,0.8,0,1.1,0c5.8-0.3,11.3-2.2,16-5.6c-0.2-0.3-0.3-0.6-0.5-1
	C729.8,645.9,724.3,647.8,718.7,648.1z"/>
<path class="st1" d="M719.6,663.1c-0.4,0-0.8,0.1-1.1,0.1c-0.4,0-0.8,0-1.2,0c-13,0-24.4-8.6-28-21c-0.2,0.4-0.5,0.9-0.7,1.3
	c4.1,12.4,15.7,20.8,28.7,20.8c0.4,0,0.8,0,1.2,0c0.4,0,0.8,0,1.1-0.1c7.6-0.6,14.8-4.1,19.9-9.7c-0.1-0.4-0.2-0.8-0.4-1.2
	C734.2,659,727.2,662.5,719.6,663.1z"/>
<path class="st0" d="M621.4,171.6l0.6-11l3,12.3c10.1,3,21.6,2.9,21.6,2.9s0.8-23.9-8.3-33.2c-9.1-9.3-17.8-7.1-24.6-0.5
	c-6.8,6.7-9.2,15.3-0.1,24.6C615.8,168.8,618.5,170.5,621.4,171.6z"/>
<path class="st1" d="M623.2,158.8l-0.4-0.5c-5.2-5.4-8.3-10.4-9.4-15c0-0.1,0-0.1,0-0.2l0.3-0.1l0.3-0.1c1.1,5.1,4.8,10.2,9.3,14.9
	c0.1,0.2,0.3,0.3,0.4,0.5c1.9,2,4,3.8,6.1,5.6c0.2,0.1,0.3,0.3,0.5,0.4c2.8,2.3,5.5,4.3,8,6.1c0.2,0.1,0.3,0.2,0.5,0.4
	c4.2,2.9,7.4,4.8,8.1,5.2c0.1,0.1,0.1,0.1,0.1,0.1l-0.2,0.3v0l-0.2,0.3c0,0-0.2-0.1-0.5-0.3c-1.1-0.7-4.1-2.5-7.9-5.1
	c-0.2-0.1-0.3-0.2-0.5-0.4c-2-1.4-4.2-3-6.4-4.8c-0.6-0.4-1.1-0.9-1.6-1.3c-0.2-0.1-0.3-0.3-0.5-0.4
	C627,162.5,625,160.6,623.2,158.8z"/>
<path class="st1" d="M638.3,171.2c0.1-0.2,0.3-0.3,0.4-0.5c0.4-0.5,0.8-0.9,1.2-1.3c1.8-1.8,4-3.1,6.4-4c0-0.2,0-0.4-0.1-0.6
	c-2.6,0.8-4.9,2.3-6.8,4.2c-0.5,0.4-0.9,0.9-1.3,1.4c-0.1,0.2-0.3,0.3-0.4,0.5c-1.1,1.4-1.9,3-2.5,4.6c0.2,0,0.4,0.1,0.6,0.1
	C636.5,174,637.3,172.6,638.3,171.2z"/>
<path class="st1" d="M629.7,164.8c0.1-0.2,0.3-0.3,0.5-0.5c0,0,0.1-0.1,0.1-0.1c4-3.9,9.7-5.6,15.2-4.6c0-0.2-0.1-0.4-0.1-0.7
	c-5.6-1-11.4,0.8-15.5,4.8c-0.1,0.1-0.1,0.1-0.2,0.2c-0.2,0.2-0.3,0.3-0.5,0.5c-2.3,2.5-3.8,5.6-4.4,8.9c0.2,0.1,0.4,0.1,0.6,0.2
	C626,170.2,627.5,167.2,629.7,164.8z"/>
<path class="st1" d="M623.2,158.8c0.1-0.2,0.3-0.3,0.4-0.5c0.2-0.2,0.3-0.3,0.5-0.5c5.5-5.3,13.8-6.4,20.4-2.7
	c-0.1-0.3-0.2-0.6-0.2-0.8c-6.8-3.5-15.1-2.3-20.6,3.1c-0.2,0.2-0.3,0.3-0.5,0.5c-0.2,0.2-0.3,0.3-0.5,0.5c-3,3.4-4.5,7.8-4.4,12.3
	c0.2,0.1,0.4,0.2,0.6,0.3C618.8,166.5,620.3,162.2,623.2,158.8z"/>
<path class="st0" d="M202.2,253.6l0.6-11l3,12.3c10.1,3,21.6,2.9,21.6,2.9s0.8-23.9-8.3-33.2s-17.8-7.1-24.6-0.5
	c-6.8,6.7-9.2,15.3-0.1,24.6C196.6,250.8,199.2,252.5,202.2,253.6z"/>
<path class="st1" d="M203.9,240.8l-0.4-0.5c-5.2-5.4-8.3-10.4-9.4-15c0-0.1,0-0.1,0-0.2l0.3-0.1l0.3-0.1c1.1,5.1,4.8,10.2,9.3,14.9
	c0.1,0.2,0.3,0.3,0.4,0.5c1.9,2,4,3.8,6.1,5.6c0.2,0.1,0.3,0.3,0.5,0.4c2.8,2.3,5.5,4.3,8,6.1c0.2,0.1,0.3,0.2,0.5,0.4
	c4.2,2.9,7.4,4.8,8.1,5.2c0.1,0.1,0.1,0.1,0.1,0.1l-0.2,0.3v0l-0.2,0.3c0,0-0.2-0.1-0.5-0.3c-1.1-0.7-4.1-2.5-7.9-5.1
	c-0.2-0.1-0.3-0.2-0.5-0.4c-2-1.4-4.2-3-6.4-4.8c-0.6-0.4-1.1-0.9-1.6-1.3c-0.2-0.1-0.3-0.3-0.5-0.4
	C207.8,244.5,205.7,242.6,203.9,240.8z"/>
<path class="st1" d="M219.1,253.2c0.1-0.2,0.3-0.3,0.4-0.5c0.4-0.5,0.8-0.9,1.2-1.3c1.8-1.8,4-3.1,6.4-4c0-0.2,0-0.4-0.1-0.6
	c-2.6,0.8-4.9,2.3-6.8,4.2c-0.5,0.4-0.9,0.9-1.3,1.4c-0.1,0.2-0.3,0.3-0.4,0.5c-1.1,1.4-1.9,3-2.5,4.6c0.2,0,0.4,0.1,0.6,0.1
	C217.2,256,218.1,254.6,219.1,253.2z"/>
<path class="st1" d="M210.5,246.8c0.1-0.2,0.3-0.3,0.5-0.5c0,0,0.1-0.1,0.1-0.1c4-3.9,9.7-5.6,15.2-4.6c0-0.2-0.1-0.4-0.1-0.7
	c-5.6-1-11.4,0.8-15.5,4.8c-0.1,0.1-0.1,0.1-0.2,0.2c-0.2,0.2-0.3,0.3-0.5,0.5c-2.3,2.5-3.8,5.6-4.4,8.9c0.2,0.1,0.4,0.1,0.6,0.2
	C206.8,252.2,208.3,249.2,210.5,246.8z"/>
<path class="st1" d="M203.9,240.8c0.1-0.2,0.3-0.3,0.4-0.5c0.2-0.2,0.3-0.3,0.5-0.5c5.5-5.3,13.8-6.4,20.4-2.7
	c-0.1-0.3-0.2-0.6-0.2-0.8c-6.8-3.5-15.1-2.3-20.6,3.1c-0.2,0.2-0.3,0.3-0.5,0.5c-0.2,0.2-0.3,0.3-0.5,0.5c-3,3.4-4.5,7.8-4.4,12.3
	c0.2,0.1,0.4,0.2,0.6,0.3C199.5,248.5,201,244.2,203.9,240.8z"/>
<path class="st0" d="M272.2,113.6l0.6-11l3,12.3c10.1,3,21.6,2.9,21.6,2.9s0.8-23.9-8.3-33.2s-17.8-7.1-24.6-0.5
	c-6.8,6.7-9.2,15.3-0.1,24.6C266.6,110.8,269.2,112.5,272.2,113.6z"/>
<path class="st1" d="M273.9,100.8l-0.4-0.5c-5.2-5.4-8.3-10.4-9.4-15c0-0.1,0-0.1,0-0.2l0.3-0.1l0.3-0.1c1.1,5.1,4.8,10.2,9.3,14.9
	c0.1,0.2,0.3,0.3,0.4,0.5c1.9,2,4,3.8,6.1,5.6c0.2,0.1,0.3,0.3,0.5,0.4c2.8,2.3,5.5,4.3,8,6.1c0.2,0.1,0.3,0.2,0.5,0.4
	c4.2,2.9,7.4,4.8,8.1,5.2c0.1,0.1,0.1,0.1,0.1,0.1l-0.2,0.3v0l-0.2,0.3c0,0-0.2-0.1-0.5-0.3c-1.1-0.7-4.1-2.5-7.9-5.1
	c-0.2-0.1-0.3-0.2-0.5-0.4c-2-1.4-4.2-3-6.4-4.8c-0.6-0.4-1.1-0.9-1.6-1.3c-0.2-0.1-0.3-0.3-0.5-0.4
	C277.8,104.5,275.7,102.6,273.9,100.8z"/>
<path class="st1" d="M289.1,113.2c0.1-0.2,0.3-0.3,0.4-0.5c0.4-0.5,0.8-0.9,1.2-1.3c1.8-1.8,4-3.1,6.4-4c0-0.2,0-0.4-0.1-0.6
	c-2.6,0.8-4.9,2.3-6.8,4.1c-0.5,0.4-0.9,0.9-1.3,1.4c-0.1,0.2-0.3,0.3-0.4,0.5c-1.1,1.4-1.9,3-2.5,4.6c0.2,0,0.4,0.1,0.6,0.1
	C287.2,116,288.1,114.6,289.1,113.2z"/>
<path class="st1" d="M280.5,106.8c0.1-0.2,0.3-0.3,0.5-0.5c0,0,0.1-0.1,0.1-0.1c4-3.9,9.7-5.6,15.2-4.6c0-0.2-0.1-0.4-0.1-0.7
	c-5.6-1-11.4,0.8-15.5,4.8c-0.1,0.1-0.1,0.1-0.2,0.2c-0.2,0.2-0.3,0.3-0.5,0.5c-2.3,2.5-3.8,5.6-4.4,8.9c0.2,0.1,0.4,0.1,0.6,0.2
	C276.8,112.2,278.3,109.2,280.5,106.8z"/>
<path class="st1" d="M273.9,100.8c0.1-0.2,0.3-0.3,0.4-0.5c0.2-0.2,0.3-0.3,0.5-0.5c5.5-5.3,13.8-6.4,20.4-2.7
	c-0.1-0.3-0.2-0.6-0.2-0.8c-6.8-3.5-15.1-2.3-20.6,3.1c-0.2,0.2-0.3,0.3-0.5,0.5c-0.2,0.2-0.3,0.3-0.5,0.5c-3,3.4-4.5,7.8-4.4,12.3
	c0.2,0.1,0.4,0.2,0.6,0.3C269.5,108.5,271,104.2,273.9,100.8z"/>
<path class="st0" d="M112.7,615.6l-23.9,22l19-31.9c-15-27.2-39.5-50.7-39.5-50.7s-50.9,48.7-50.9,87.1s22.8,51.7,50.9,51.7
	c28.1,0,50.9-13.4,50.9-51.7C119.1,633.6,116.6,624.6,112.7,615.6z"/>
<path class="st1" d="M82.6,638.9v1.9c-0.1,22-3.8,39.1-11.1,51.1c-0.1,0.2-0.2,0.3-0.3,0.5l-0.8-0.5l-0.8-0.5
	c8.1-13,10.9-31.4,11-50.6c0-0.6,0-1.2,0-1.9c0-8.1-0.5-16.3-1.3-24.3c-0.1-0.6-0.1-1.2-0.2-1.9c-1.1-10.5-2.7-20.6-4.3-29.3
	c-0.1-0.6-0.2-1.2-0.4-1.8c-2.8-14.8-5.7-25.4-6.3-27.8c-0.1-0.3-0.1-0.4-0.1-0.5l0.9-0.3l0,0l0.9-0.3c0,0,0.2,0.6,0.4,1.6
	c1,3.7,3.6,13.8,6.2,27c0.1,0.6,0.2,1.2,0.3,1.8c1.3,7.1,2.6,15,3.7,23.3c0.3,2.1,0.5,4.1,0.7,6.2c0.1,0.6,0.1,1.3,0.2,1.9
	C82.1,623.3,82.5,631.4,82.6,638.9z"/>
<path class="st1" d="M76.3,581.5c-0.6,0.1-1.3,0.2-1.9,0.2c-1.8,0.2-3.5,0.3-5.3,0.3c-7.5,0-14.9-1.7-21.7-4.9
	c-0.4,0.5-0.8,1-1.2,1.5c7.1,3.5,15,5.3,22.9,5.3c1.9,0,3.8-0.1,5.6-0.3c0.6-0.1,1.3-0.1,1.9-0.2c5.2-0.7,10.2-2.3,14.9-4.5
	c-0.4-0.5-0.8-1-1.2-1.5C86,579.4,81.2,580.8,76.3,581.5z"/>
<path class="st1" d="M81,612.8c-0.6,0-1.3,0.1-1.9,0.1c-0.2,0-0.4,0-0.6,0c-16.5,0-32-8.1-41.4-21.6c-0.4,0.6-0.7,1.1-1.1,1.7
	c9.8,13.7,25.7,21.8,42.5,21.8c0.3,0,0.5,0,0.8,0c0.7,0,1.3,0,1.9-0.1c10-0.5,19.6-3.9,27.7-9.7c-0.3-0.6-0.6-1.1-0.9-1.7
	C100.2,609,90.8,612.3,81,612.8z"/>
<path class="st1" d="M82.6,638.9c-0.7,0.1-1.3,0.1-2,0.1c-0.7,0-1.4,0-2.1,0c-22.4,0-42.2-14.8-48.5-36.4c-0.4,0.8-0.8,1.5-1.2,2.3
	c7.1,21.5,27.1,36,49.7,36c0.7,0,1.4,0,2.1,0c0.7,0,1.3-0.1,2-0.1c13.2-1,25.6-7.1,34.5-16.8c-0.2-0.7-0.4-1.4-0.6-2.1
	C107.8,631.7,95.6,637.8,82.6,638.9z"/>
<ellipse transform="matrix(0.7526 -0.6585 0.6585 0.7526 -87.4239 558.2191)" class="st2" cx="699.1" cy="395.4" rx="83.5" ry="43.5"/>
<ellipse transform="matrix(0.6585 -0.7526 0.7526 0.6585 -245.6555 249.5122)" class="st2" cx="152.1" cy="395.4" rx="43.5" ry="83.5"/>
<ellipse class="st2" cx="293.1" cy="649.4" rx="83.5" ry="43.5"/>
<ellipse class="st2" cx="558.1" cy="649.4" rx="83.5" ry="43.5"/>
<path class="st3" d="M425.6,632.9c-113,0-205-92-205-205s92-205,205-205s205,92,205,205S538.6,632.9,425.6,632.9z M425.6,224.9
	c-111.9,0-203,91.1-203,203s91.1,203,203,203s203-91.1,203-203S537.5,224.9,425.6,224.9z"/>
<path class="st0" d="M375.6,564.5c-85.5-29.4-136.1-117.6-118.2-206.3c-44.5,89.2-8.3,197.5,80.9,242s197.5,8.3,242-80.9
	c7.1-14.2,12.3-29.2,15.4-44.8C555.3,555.4,461.2,593.9,375.6,564.5z"/>
<path class="st3" d="M365.2,411.6c-10.4,0-18.8-11-18.8-24.5s8.4-24.5,18.8-24.5s18.8,11,18.8,24.5S375.6,411.6,365.2,411.6z"/>
<path class="st3" d="M479.2,411.6c-10.4,0-18.8-11-18.8-24.5s8.4-24.5,18.8-24.5s18.8,11,18.8,24.5S489.6,411.6,479.2,411.6z"/>
<ellipse class="st4" cx="412.6" cy="22.9" rx="18" ry="13"/>
<ellipse class="st4" cx="412.6" cy="7.9" rx="11" ry="7.9"/>
<path class="st4" d="M399.7,28.1c-6.2-6.2-8.2-14.5-5.1-19.9c-0.7,0.4-1.4,0.9-2,1.5c-5.1,5.1-3.5,14.9,3.5,21.9
	c7,7,16.8,8.6,21.9,3.5c0.6-0.6,1.1-1.3,1.5-2C414.2,36.3,405.9,34.3,399.7,28.1z"/>
<polygon class="st5" points="227.3,349.9 221,339.4 258.5,310 267.8,325.5 "/>
<path class="st4" d="M218.8,358.7l-20.4-33.9l0.4-0.3c7.3-4.4,16.7-2,21.1,5.2l0,0l12.5,20.7L218.8,358.7z"/>
<polygon class="st5" points="622.5,335.9 628.8,325.4 591.3,296 581.9,311.5 "/>
<path class="st4" d="M617.4,336.5l12.5-20.7l0,0c4.4-7.3,13.8-9.6,21.1-5.2l0.4,0.3L631,344.7L617.4,336.5z"/>
<polygon class="st4" points="377.3,195.7 374.9,205.3 310.5,256.8 241.2,321.6 248.6,338.9 413.9,228.3 600.2,324.9 608.5,305.8 
	523.5,248.8 453.2,200.4 "/>
<path class="st6" d="M399,93.7l-27.8,9.1l3.8,101.4c0,0,48.4,29.1,78.3-3.9V98.9l-16.6-5.2H399z"/>
<path class="st6" d="M447,105.9l6.2-7c0,0,17.2,6.3,15.8,25.1s-11.5,78.8-11.5,78.8l-1.9,39.1h-17.9l7.2-101.1L447,105.9z"/>
<path class="st6" d="M379,108.9l-6.2-7c0,0-17.2,6.3-15.8,25.1s11.5,78.8,11.5,78.8l1.9,39.1h17.9l-7.2-101.1L379,108.9z"/>
<circle class="st5" cx="379.6" cy="249.9" r="11"/>
<circle class="st5" cx="446.6" cy="249.9" r="11"/>
<circle class="st4" cx="412.1" cy="54.9" r="30.5"/>
<circle class="st5" cx="413.1" cy="61.8" r="24.6"/>
<path class="st4" d="M387.3,46.4c5.6,3.9,12.3,5.9,19.1,5.9c-2.4,1.7-5.2,2.8-8.1,3.3c9.1,1.9,18.4,2,27.5,0.2c2-0.3,4-1,5.8-2
	c1.8-1,3.1-2.7,3.6-4.8c0.6-3.4-2.1-6.6-4.9-8.7c-8.7-6.4-19.8-8.7-30.2-6c-3.4,0.9-6.8,2.3-9,5.1s-2.8,6.9-0.8,9.7L387.3,46.4z"/>
<path class="st3" d="M821,694.9H1c-0.6,0-1-0.4-1-1s0.4-1,1-1h820c0.6,0,1,0.4,1,1S821.6,694.9,821,694.9z"/>
<path class="st3" d="M394.6,507.9c0,15.5,12.5,28,28,28s28-12.5,28-28H394.6z"/>
<circle class="st0" cx="525.7" cy="448.9" r="24"/>
<circle class="st0" cx="318.7" cy="448.9" r="24"/>
</svg>
