<?xml version="1.0" encoding="utf-8"?>
<!-- Generator: Adobe Illustrator 24.1.2, SVG Export Plug-In . SVG Version: 6.00 Build 0)  -->
<svg version="1.1" id="ab0c8d57-73b5-4efc-a896-a2305a232bd8"
	 xmlns="http://www.w3.org/2000/svg" xmlns:xlink="http://www.w3.org/1999/xlink" x="0px" y="0px" viewBox="0 0 1027.5 696.1"
	 style="enable-background:new 0 0 1027.5 696.1;" xml:space="preserve">
<style type="text/css">
	.st0{opacity:0.4;fill:#6DC9F7;enable-background:new    ;}
	.st1{fill:#3A2C60;}
	.st2{fill:#F2F2F2;}
	.st3{fill:#6DC9F7;}
	.st4{fill:#FA759E;}
	.st5{opacity:0.3;fill:#6DC9F7;enable-background:new    ;}
	.st6{fill:#FFFFFF;}
</style>
<circle class="st0" cx="696.2" cy="355.7" r="76.8"/>
<rect x="270" y="461.9" class="st1" width="428" height="116"/>
<path class="st2" d="M670.6,174.5l-17.1,8.1l15.1-11.3c-2.5-3.8-5.2-7.5-8.3-10.9l-74.1,18.4l66.9-25.5c-3.1-2.7-6.3-5.2-9.7-7.4
	l-112.9,18.2c-12,15-18.5,33.6-18.5,52.8h170C682,202,678.1,187.4,670.6,174.5z"/>
<path class="st2" d="M684.1,50.2C616.2,17.1,541.6-0.1,466,0C312.2,0,174.6,69.8,83.3,179.3C239.7,145.1,512.1,85.7,684.1,50.2z"/>
<rect y="693.9" class="st1" width="1020" height="2"/>
<path class="st1" d="M595.9,216.9L538,131c0,0,87.6,30.6,77.7,86H595.9z"/>
<path class="st3" d="M598.1,216.9l57.9-86c0,0-87.6,30.6-77.7,86H598.1z"/>
<path class="st1" d="M698.5,695.9h-429v-640h429V695.9z M271.5,693.9h425v-636h-425V693.9z"/>
<rect x="271" y="71.1" class="st1" width="427" height="2"/>
<circle class="st3" cx="282" cy="63.9" r="4"/>
<circle class="st3" cx="293" cy="63.9" r="4"/>
<circle class="st3" cx="304" cy="63.9" r="4"/>
<rect x="286" y="84.9" class="st3" width="18" height="10"/>
<rect x="286" y="163.9" class="st4" width="88" height="10"/>
<rect x="599" y="84.9" class="st2" width="88" height="10"/>
<rect x="286" y="180.9" class="st2" width="148" height="6"/>
<rect x="286" y="193.9" class="st2" width="140" height="6"/>
<rect x="286" y="206.9" class="st2" width="102" height="6"/>
<rect x="320" y="384.9" class="st2" width="58" height="6"/>
<rect x="320" y="397.9" class="st2" width="54.9" height="6"/>
<rect x="320" y="410.9" class="st2" width="40" height="6"/>
<rect x="455" y="384.9" class="st2" width="58" height="6"/>
<rect x="455" y="397.9" class="st2" width="54.9" height="6"/>
<rect x="455" y="410.9" class="st2" width="40" height="6"/>
<rect x="595" y="384.9" class="st2" width="58" height="6"/>
<rect x="595" y="397.9" class="st2" width="54.9" height="6"/>
<rect x="595" y="410.9" class="st2" width="40" height="6"/>
<rect x="410" y="611.9" class="st4" width="88" height="10"/>
<rect x="410" y="628.9" class="st2" width="148" height="6"/>
<rect x="410" y="641.9" class="st2" width="140" height="6"/>
<rect x="410" y="654.9" class="st2" width="102" height="6"/>
<rect x="312.5" y="271.9" class="st5" width="348" height="2"/>
<rect x="312" y="306.9" class="st5" width="74" height="66"/>
<rect x="447" y="306.9" class="st1" width="74" height="66"/>
<rect x="587" y="306.9" class="st1" width="74" height="66"/>
<path class="st3" d="M474.4,372.6l-1,0c0-1.1,0.6-26.6,10.7-33.6l0.6,0.8C475,346.6,474.4,372.4,474.4,372.6z"/>
<circle class="st3" cx="489.2" cy="333.8" r="4.9"/>
<path class="st3" d="M488.2,351c-2.5,0.8-5.2,0.9-7.8,0.3c3.4-4.3,8.9-6.2,14.2-4.9C492.9,348.5,490.7,350.1,488.2,351z"/>
<path class="st3" d="M614.4,372.6l-1,0c0-1.1,0.6-26.6,10.7-33.6l0.6,0.8C615,346.6,614.4,372.4,614.4,372.6z"/>
<circle class="st3" cx="629.2" cy="333.8" r="4.9"/>
<path class="st3" d="M628.2,351c-2.5,0.8-5.2,0.9-7.8,0.3c3.4-4.3,8.9-6.2,14.2-4.9C632.9,348.5,630.7,350.1,628.2,351z"/>
<rect x="286" y="498.9" class="st4" width="88" height="10"/>
<rect x="286" y="515.9" class="st2" width="148" height="6"/>
<rect x="286" y="528.9" class="st2" width="140" height="6"/>
<rect x="286" y="541.9" class="st2" width="102" height="6"/>
<circle class="st0" cx="611.8" cy="512.7" r="31.2"/>
<circle class="st0" cx="553.9" cy="527.6" r="21.9"/>
<circle class="st1" cx="167.5" cy="582.4" r="79"/>
<rect x="131.5" y="644.4" class="st1" width="24" height="43"/>
<rect x="179.5" y="644.4" class="st1" width="24" height="43"/>
<ellipse class="st1" cx="151.5" cy="687.9" rx="20" ry="7.5"/>
<ellipse class="st1" cx="199.5" cy="686.9" rx="20" ry="7.5"/>
<circle class="st6" cx="169.5" cy="562.4" r="27"/>
<circle class="st1" cx="169.5" cy="550.4" r="9"/>
<path class="st3" d="M90.9,508.9c-6.4-28.6,14-57.4,45.5-64.5s62.3,10.4,68.6,39c6.4,28.6-14.5,39.1-46.1,46.1
	S97.2,537.5,90.9,508.9z"/>
<ellipse transform="matrix(0.4214 -0.9069 0.9069 0.4214 -317.3886 492.5088)" class="st1" cx="227.3" cy="495" rx="39.5" ry="12.4"/>
<ellipse transform="matrix(0.8838 -0.4678 0.4678 0.8838 -233.2366 98.7867)" class="st1" cx="82.3" cy="519" rx="12.4" ry="39.5"/>
<ellipse transform="matrix(0.9331 -0.3596 0.3596 0.9331 -133.4616 329.9467)" class="st1" cx="820" cy="523.7" rx="12.4" ry="39.5"/>
<circle class="st1" cx="893.2" cy="583.1" r="79"/>
<rect x="905.4" y="645" transform="matrix(1 -2.799989e-03 2.799989e-03 1 -1.8627 2.5714)" class="st1" width="24" height="43"/>
<rect x="857.4" y="645.2" transform="matrix(1 -2.801098e-03 2.801098e-03 1 -1.864 2.4379)" class="st1" width="24" height="43"/>
<ellipse transform="matrix(1 -2.801064e-03 2.801064e-03 1 -1.9251 2.5502)" class="st1" cx="909.5" cy="688.6" rx="20" ry="7.5"/>
<ellipse transform="matrix(1 -2.801064e-03 2.801064e-03 1 -1.9229 2.4158)" class="st1" cx="861.5" cy="687.7" rx="20" ry="7.5"/>
<circle class="st6" cx="891.1" cy="563.1" r="27"/>
<circle class="st1" cx="891.1" cy="563.1" r="9"/>
<path class="st3" d="M969.6,509.4c6.3-28.6-14.2-57.4-45.7-64.3s-62.2,10.6-68.5,39.2c-6.3,28.6,14.6,39.1,46.2,46
	S963.3,538,969.6,509.4z"/>
<ellipse transform="matrix(0.9023 -0.4311 0.4311 0.9023 -139.519 476.6787)" class="st1" cx="982.1" cy="546.2" rx="39.5" ry="12.4"/>
<path class="st6" d="M932.1,611.5c0,7.7-19.8,23.1-41.9,23.1s-42.9-21.6-42.9-29.4s20.7,1.4,42.8,1.4S932.1,603.8,932.1,611.5z"/>
<circle class="st0" cx="917.2" cy="468.7" r="110.2"/>
<circle class="st1" cx="190.4" cy="348.6" r="79"/>
<rect x="130.4" y="414.5" transform="matrix(0.1781 -0.984 0.984 0.1781 -294.8051 499.9941)" class="st1" width="43" height="24"/>
<rect x="177.6" y="423" transform="matrix(0.1781 -0.984 0.984 0.1781 -264.4001 553.4983)" class="st1" width="43" height="24"/>
<ellipse transform="matrix(0.6463 -0.7631 0.7631 0.6463 -281.6318 315.4382)" class="st1" cx="199.4" cy="461.5" rx="7.5" ry="20"/>
<ellipse transform="matrix(0.6463 -0.7631 0.7631 0.6463 -291.6022 277.1842)" class="st1" cx="153.2" cy="453.1" rx="7.5" ry="20"/>
<circle class="st6" cx="195.9" cy="329.3" r="27"/>
<circle class="st1" cx="207" cy="319.6" r="9"/>
<path class="st3" d="M128.1,262.6c-1.2-29.2,24-54,56.3-55.3s59.4,21.3,60.6,50.6s-21.3,35.9-53.5,37.2S129.3,291.9,128.1,262.6z"/>
<ellipse transform="matrix(0.9747 -0.2234 0.2234 0.9747 -68.0101 67.2862)" class="st1" cx="263.4" cy="334.2" rx="39.5" ry="12.4"/>
<ellipse transform="matrix(0.9747 -0.2234 0.2234 0.9747 -77.6918 33.2911)" class="st1" cx="108.3" cy="360" rx="39.5" ry="12.4"/>
<path class="st6" d="M168.7,379.7c-1.8,9.8,4.7,19.1,14.5,20.9c9.8,1.8,19.1-4.7,20.9-14.5c1.8-9.8-5.8-13.2-15.6-15
	S170.5,369.9,168.7,379.7z"/>
<rect x="298.5" y="268.4" transform="matrix(0.2872 -0.9579 0.9579 0.2872 -56.2358 535.2357)" class="st1" width="66" height="74"/>
<path class="st3" d="M312.9,334l-0.9-0.3c0.3-1,8.2-25.3,19.9-29.1l0.3,0.9C320.9,309.2,312.9,333.7,312.9,334z"/>
<circle class="st3" cx="338.2" cy="301.1" r="4.9"/>
<path class="st3" d="M332.3,317.3c-2.7,0-5.3-0.6-7.6-1.9c4.5-3.1,10.4-3.4,15-0.6C337.6,316.2,335,317.1,332.3,317.3z"/>
</svg>
